# xmcd CD database file
#
# Track frame offsets:
#	150
#	10674
#	23565
#	33933
#	44671
#	52917
#	64031
#	74095
#	85332
#	96949
#	109826
#	120877
#
# Disc length: 1755 seconds
#
# Revision: 0
# Processed by: cddbd v1.5.2PL0 Copyright (c) Steve Scherf et al.
# Submitted via: CDex 1.70beta2
#
DISCID=9506d90c
DTITLE=B.B. KING - Confessin' The Blues
DYEAR=1966
DGENRE=Blues
TTITLE0=See See Rider
TTITLE1=Do You Call That A Buddy
TTITLE2=Wee Baby Blues
TTITLE3=I'd Rather Drink Muddy Water
TTITLE4=In The Dark
TTITLE5=Confessin' The Blues
TTITLE6=Goin' To Chicago Blues
TTITLE7=I'm Gonna Move To The Outskirts Of Town
TTITLE8=World Of Trouble
TTITLE9=How Long, How Long Blues
TTITLE10=Cherry Red
TTITLE11=Please Send Me Someone To Love
EXTD=YEAR: 1966
EXTT0=
EXTT1=
EXTT2=
EXTT3=
EXTT4=
EXTT5=
EXTT6=
EXTT7=
EXTT8=
EXTT9=
EXTT10=
EXTT11=
PLAYORDER=
